<svg xmlns="http://www.w3.org/2000/svg" width="16" height="13" fill="currentColor"><rect id="backgroundrect" width="100%" height="100%" x="0" y="0" fill="none" stroke="none"/>
  
  
<g class="currentLayer" style=""><title>Layer 1</title><path fill-rule="evenodd" d="M0,2.2159063816070557 A0.5,0.5 0 0 1 0.5,1.7159063816070557 H1 c2.202,0 3.827,1.24 4.8740000000000006,2.418 c0.49000000000000005,0.552 0.8650000000000001,1.102 1.126,1.532 c0.26,-0.43000000000000005 0.6360000000000001,-0.98 1.126,-1.532 C9.173,2.955906381607056 10.798,1.7159063816070557 13,1.7159063816070557 v1 c-1.798,0 -3.173,1.01 -4.126,2.082 A9.624,9.624 0 0 0 7.556,6.715906381607056 a9.624,9.624 0 0 0 1.3170000000000002,1.9180000000000001 C9.828,9.705906381607056 11.204,10.715906381607056 13,10.715906381607056 v1 c-2.202,0 -3.827,-1.24 -4.8740000000000006,-2.418 A10.595,10.595 0 0 1 7,7.765906381607056 c-0.26,0.43000000000000005 -0.6360000000000001,0.98 -1.126,1.532 C4.827,10.475906381607055 3.202,11.715906381607056 1,11.715906381607056 H0.5 a0.5,0.5 0 0 1 0,-1 H1 c1.798,0 3.173,-1.01 4.126,-2.082 A9.624,9.624 0 0 0 6.444,6.715906381607056 a9.624,9.624 0 0 0 -1.3170000000000002,-1.9180000000000001 C4.172,3.7259063816070555 2.7960000000000003,2.7159063816070557 1,2.7159063816070557 H0.5 a0.5,0.5 0 0 1 -0.5,-0.5 z" id="svg_1" class="" fill="#ffffff" fill-opacity="1"/><path d="M13,4.181906381607056 V0.2499063816070557 a0.25,0.25 0 0 1 0.41000000000000003,-0.19200000000000003 l2.36,1.9660000000000002 c0.12000000000000001,0.1 0.12000000000000001,0.28400000000000003 0,0.38400000000000006 l-2.36,1.9660000000000002 a0.25,0.25 0 0 1 -0.41000000000000003,-0.19200000000000003 zm0,9 v-3.932 a0.25,0.25 0 0 1 0.41000000000000003,-0.19200000000000003 l2.36,1.9660000000000002 c0.12000000000000001,0.1 0.12000000000000001,0.28400000000000003 0,0.38400000000000006 l-2.36,1.9660000000000002 a0.25,0.25 0 0 1 -0.41000000000000003,-0.19200000000000003 z" id="svg_2" class="" fill="#ffffff" fill-opacity="1"/></g></svg>